<svg width="101" height="55" viewBox="0 0 101 55" fill="none" xmlns="http://www.w3.org/2000/svg">
<path d="M13.6 21.78C13.6 23.6747 13.1553 25.0667 12.266 25.956C11.3767 26.8453 10.004 27.29 8.148 27.29C6.31133 27.29 4.35867 27.1933 2.29 27V23.085C3.798 23.1817 5.34467 23.23 6.93 23.23C7.37467 23.23 7.72267 23.1043 7.974 22.853C8.24467 22.5823 8.38 22.2247 8.38 21.78V10.76H4.61V6.7H13.6V21.78ZM19.8259 27H14.1709L21.8559 6.7H27.6559L35.3409 27H29.6859L28.3809 23.375H21.1309L19.8259 27ZM22.4359 19.605H27.0759L24.7559 12.79L22.4359 19.605ZM32.1475 6.7H37.6575L42.4425 16.56L47.2275 6.7H52.7375L45.0525 21.635V27H39.8325V21.635L32.1475 6.7Z" fill="url(#paint0_radial_61_4)"/>
<path d="M17.4 53.71C13.0887 54.0967 9.512 54.29 6.67 54.29C4.77533 54.29 3.38333 53.8453 2.494 52.956C1.60467 52.0667 1.16 50.6747 1.16 48.78V39.5C1.16 37.47 1.61433 36.0007 2.523 35.092C3.451 34.164 4.93 33.7 6.96 33.7H17.4V37.76H8.12C6.96 37.76 6.38 38.34 6.38 39.5V48.78C6.38 49.2247 6.50567 49.5823 6.757 49.853C7.02767 50.1043 7.366 50.23 7.772 50.23C8.178 50.23 8.62267 50.23 9.106 50.23C9.58933 50.2107 10.092 50.1913 10.614 50.172C11.136 50.1527 11.658 50.1333 12.18 50.114C12.7213 50.0947 13.4077 50.056 14.239 49.998C15.0897 49.94 16.1433 49.8723 17.4 49.795V53.71ZM35.8184 54H19.7234V33.7H35.8184V37.76H24.9434V41.675H33.4984V45.735H24.9434V49.94H35.8184V54ZM37.5226 49.795C42.8199 50.085 46.4063 50.23 48.2816 50.23C48.7263 50.23 49.0743 50.1043 49.3256 49.853C49.5963 49.5823 49.7316 49.2247 49.7316 48.78V46.17H43.0616C41.0316 46.17 39.5526 45.7157 38.6246 44.807C37.7159 43.879 37.2616 42.4 37.2616 40.37V39.5C37.2616 37.47 37.7159 36.0007 38.6246 35.092C39.5526 34.164 41.0316 33.7 43.0616 33.7H53.2406V37.76H44.2216C43.0616 37.76 42.4816 38.34 42.4816 39.5V40.08C42.4816 41.24 43.0616 41.82 44.2216 41.82H49.4416C51.3363 41.82 52.7283 42.2647 53.6176 43.154C54.5069 44.0433 54.9516 45.4353 54.9516 47.33V48.78C54.9516 50.6747 54.5069 52.0667 53.6176 52.956C52.7283 53.8453 51.3363 54.29 49.4416 54.29C48.4556 54.29 47.4116 54.2707 46.3096 54.232L43.6416 54.116C41.6696 54.0193 39.6299 53.884 37.5226 53.71V49.795ZM60.6179 54H54.9629L62.6479 33.7H68.4479L76.1329 54H70.4779L69.1729 50.375H61.9229L60.6179 54ZM63.2279 46.605H67.8679L65.5479 39.79L63.2279 46.605ZM77.5818 33.7H89.7618C91.7918 33.7 93.2611 34.164 94.1698 35.092C95.0978 36.0007 95.5618 37.47 95.5618 39.5V42.11C95.5618 43.7147 95.2911 44.9617 94.7498 45.851C94.2278 46.7403 93.3868 47.33 92.2268 47.62L95.8518 54H90.1968L86.8618 47.91H82.8018V54H77.5818V33.7ZM90.3418 39.5C90.3418 38.34 89.7618 37.76 88.6018 37.76H82.8018V43.85H88.6018C89.7618 43.85 90.3418 43.27 90.3418 42.11V39.5Z" fill="white"/>
<defs>
<radialGradient id="paint0_radial_61_4" cx="0" cy="0" r="1" gradientUnits="userSpaceOnUse" gradientTransform="translate(5.5 6.5) rotate(18.9465) scale(70.8378 149.265)">
<stop stop-color="#F84D05"/>
<stop offset="0.312004" stop-color="#F89014"/>
<stop offset="1" stop-color="#F9D022"/>
</radialGradient>
</defs>
</svg>
